<svg version="1.1" id="Layer_1" xmlns="http://www.w3.org/2000/svg" xmlns:xlink="http://www.w3.org/1999/xlink" x="0px" y="0px"
	 width="100%" viewBox="0 0 512 512" enable-background="new 0 0 512 512" xml:space="preserve">
<path fill="#FFFFFF" opacity="1.000000" stroke="none" 
	style="stroke: #ee7c31; stroke-width: 1; stroke-dasharray: none; stroke-linecap: butt; stroke-linejoin: miter; stroke-miterlimit: 10; stroke-color: #ee7c31;"
	d="M251.4606 513C244.3681 505.5951 245.3389 496.4564 244.9377 487.5168 244.1481 469.9203 243.0361 452.3378 241.9812 434.7542 241.4009 425.0796 240.7028 415.4115 239.9909 405.7455 239.0275 392.6648 237.9103 379.5947 237.0677 366.5067 236.8753 363.5187 235.5361 363.0179 232.9736 362.9606 208.3183 362.4087 184.2395 357.9133 160.787 350.7055 149.8556 347.3459 138.9192 342.7958 129.2861 336.7218 117.0384 328.9993 110.5645 316.6872 107.8823 302.1847 104.2963 282.7952 112.1303 266.8181 122.72 252.1288 131.4923 239.9604 141.4841 228.5135 152.0468 217.8474 159.3893 210.433 168.2344 204.2739 177.1347 198.7177 182.9672 195.0767 183.2473 190.0238 183.9818 184.6329 185.6943 172.0642 187.3234 159.4841 188.9704 146.9066 189.6671 141.5856 190.5648 136.273 190.8653 130.9281 190.968 129.1021 190.0719 126.4902 188.7058 125.4228 172.7249 112.9356 162.1113 96.6399 155.517 77.8017 151.7654 67.0843 149.8163 55.8577 149.8994 44.303 149.9698 34.5227 154.6019 27.4895 161.9719 22.0622 175.523 12.0831 191.4281 8.0991 207 4 214 3 218 2 224.3019 1.3691 245.6876 1 267.3751 1 284 2 288 2 291.213 2.7679 291.975 2.9326 304.7231 5.6883 317.6266 7.834 330.2211 11.1557 339.4163 13.5809 347.7861 18.2472 355.1189 24.5717 364.4873 32.652 365.0753 43.355 363.7282 54.3138 362.8895 61.1363 360.7548 67.803 359.1486 74.5269 356.0609 87.4526 349.7134 98.8068 341.3797 108.9297 336.4046 114.9729 330.2922 120.0697 324.8864 125.777 323.804 126.9198 322.9137 128.9908 323.1082 130.4806 324.9154 144.3236 327.041 158.1246 328.9411 171.9561 329.7846 178.0964 330.7034 184.2702 330.8388 190.4453 330.906 193.511 331.9294 195.3039 334.2418 196.679 347.8188 204.7531 359.8221 214.8044 370.6414 226.2235 381.498 237.6819 390.9129 250.2275 398.677 264.0638 404.1252 273.7727 407.3032 283.9303 406.946 294.9948 406.3242 314.2517 393.9935 334.7156 374.6512 342.4192 358.9171 348.6857 343.0128 354.0317 326.5654 357.576 315.7913 359.8979 304.673 360.655 293.6912 361.9651 289.1321 362.509 284.5012 362.4865 279.9612 363.1316 278.8565 363.2886 277.2515 364.9792 277.1192 366.11 276.226 373.744 275.4743 381.4061 275.0378 389.0797 273.9239 408.661 273.0442 428.2554 271.98 447.8396 271.418 458.1819 270.7123 468.5172 269.9856 478.8496 269.3874 487.3542 269.0711 495.9133 267.77 504.3151 267.3215 507.2113 264.2791 509.7058 262.7108 512.6919 259.3071 513 255.6142 513 251.4606 513z"/>
</svg>